<svg width="1041" height="371" viewBox="0 0 1041 371" fill="none" xmlns="http://www.w3.org/2000/svg">
<path d="M602.236 285.73C593.951 271.381 598.868 253.033 613.216 244.749L671.645 211.015C685.994 202.731 704.341 207.647 712.626 221.996L746.359 280.424C754.643 294.773 749.727 313.121 735.378 321.405L676.95 355.139C662.601 363.423 644.254 358.507 635.969 344.158L602.236 285.73Z" fill="#EC5863"/>
<rect x="0.469269" y="312.209" width="65.7521" height="65.7521" rx="16" transform="rotate(-30 0.469269 312.209)" fill="#EC5863"/>
<rect x="950.928" y="33.463" width="65.7521" height="65.7521" rx="16" transform="rotate(-30 950.928 33.463)" fill="#EC5863"/>
<path d="M341.588 95.3994C357.592 99.6876 367.09 116.138 362.801 132.142L353.236 167.839C348.948 183.843 332.498 193.34 316.494 189.052L280.797 179.487C264.793 175.199 255.295 158.749 259.584 142.745L269.149 107.048C273.437 91.0435 289.887 81.5461 305.891 85.8343L341.588 95.3994Z" fill="#EC5863"/>
</svg>
